<?xml version="1.0" encoding="UTF-8" standalone="no"?>
<!-- Created with Inkscape (http://www.inkscape.org/) -->

<svg
   width="0.29303035in"
   height="0.28139418in"
   viewBox="0 0 28.130914 27.013841"
   version="1.1"
   id="svg1"
   inkscape:version="1.4 (e7c3feb, 2024-10-09)"
   sodipodi:docname="about.svg"
   xmlns:inkscape="http://www.inkscape.org/namespaces/inkscape"
   xmlns:sodipodi="http://sodipodi.sourceforge.net/DTD/sodipodi-0.dtd"
   xmlns="http://www.w3.org/2000/svg"
   xmlns:svg="http://www.w3.org/2000/svg">
  <sodipodi:namedview
     id="namedview1"
     pagecolor="#505050"
     bordercolor="#ffffff"
     borderopacity="1"
     inkscape:showpageshadow="0"
     inkscape:pageopacity="0"
     inkscape:pagecheckerboard="1"
     inkscape:deskcolor="#d1d1d1"
     inkscape:document-units="in"
     showguides="true"
     inkscape:zoom="5.2932895"
     inkscape:cx="7.0844416"
     inkscape:cy="15.396853"
     inkscape:window-width="1920"
     inkscape:window-height="1027"
     inkscape:window-x="0"
     inkscape:window-y="0"
     inkscape:window-maximized="1"
     inkscape:current-layer="layer2"
     showgrid="false">
    <inkscape:page
       x="0"
       y="0"
       width="28.130915"
       height="27.013842"
       id="page1"
       margin="0"
       bleed="0" />
  </sodipodi:namedview>
  <defs
     id="defs1" />
  <g
     inkscape:label="bg"
     inkscape:groupmode="layer"
     id="layer1"
     transform="translate(-392.67192,-515.24248)" />
  <g
     inkscape:groupmode="layer"
     id="layer2"
     inkscape:label="cards"
     transform="translate(-392.67192,-515.24248)">
    <path
       style="fill:#217821;stroke-width:0.0599823"
       d="m 406.08212,542.1993 c -0.4384,-0.086 -0.8522,-0.23634 -1.2641,-0.45926 -0.3179,-0.17201 -0.6891,-0.51416 -2.0094,-1.85181 l -1.6195,-1.64081 -2.1893,-0.0178 -2.1895,-0.0178 -0.5098,-0.16996 c -0.901,-0.30032 -1.3964,-0.59636 -2.0613,-1.23197 -0.6808,-0.65068 -1.1565,-1.45939 -1.4312,-2.43297 l -0.1355,-0.47987 -6e-4,-7.07793 c 0,-6.68155 0.01,-7.10482 0.1107,-7.55781 0.4568,-1.97001 1.9376,-3.45087 3.9077,-3.90758 0.4566,-0.10587 0.9431,-0.11125 10.077,-0.11125 h 9.5972 l 0.5099,0.13049 c 1.9522,0.49968 3.3583,1.93543 3.819,3.8997 0.1032,0.44028 0.1098,0.89483 0.1094,7.54645 v 7.07793 l -0.1354,0.47987 c -0.2748,0.97358 -0.7506,1.78229 -1.4314,2.43297 -0.6648,0.63561 -1.1602,0.93165 -2.0611,1.23197 l -0.51,0.16996 -2.1893,0.0181 -2.1894,0.0182 -1.6494,1.66966 c -1.5982,1.61756 -1.6655,1.6773 -2.1594,1.91478 -0.7854,0.37759 -1.6585,0.51135 -2.3948,0.36689 z m 1.2332,-2.63791 c 0.1563,-0.0756 0.4696,-0.3557 0.8054,-0.71978 l 0.5494,-0.59593 h -1.9306 -1.9306 l 0.5532,0.59781 c 0.3163,0.34221 0.6581,0.64994 0.7991,0.71974 0.3282,0.16247 0.8163,0.1617 1.1541,-0.002 z m 0.01,-7.84684 c 0.2835,-0.14539 0.4632,-0.33728 0.5817,-0.62068 0.079,-0.19004 0.093,-0.63761 0.093,-3.09385 v -2.87165 l -0.1396,-0.26437 c -0.077,-0.14538 -0.2545,-0.34533 -0.3951,-0.44431 -0.2311,-0.16284 -0.3,-0.17993 -0.725,-0.17993 -0.4249,0 -0.4938,0.0171 -0.725,0.17993 -0.1405,0.099 -0.3182,0.29893 -0.3951,0.44431 l -0.1396,0.26437 v 2.87165 c 0,2.45624 0.014,2.90381 0.093,3.09385 0.284,0.67968 1.0839,0.96313 1.7519,0.62068 z m 0.1425,-9.03617 c 0.3822,-0.26922 0.5463,-0.62282 0.5199,-1.12027 -0.026,-0.49216 -0.2355,-0.8321 -0.6477,-1.05228 -0.2254,-0.12038 -0.3363,-0.14064 -0.6721,-0.12276 -0.4922,0.0262 -0.8322,0.23542 -1.0523,0.64761 -0.1205,0.22538 -0.1408,0.33633 -0.1228,0.67222 0.026,0.49218 0.2353,0.83212 0.6476,1.0523 0.2253,0.12037 0.3363,0.14062 0.6722,0.12274 0.3288,-0.0175 0.4485,-0.0539 0.6552,-0.19956 z"
       id="path1-7" />
  </g>
</svg>
