<?xml version="1.0" encoding="UTF-8" standalone="no"?>
<!-- Created with Inkscape (http://www.inkscape.org/) -->

<svg
   width="0.28488743in"
   height="0.27852973in"
   viewBox="0 0 27.349194 26.738855"
   version="1.1"
   id="svg1"
   inkscape:version="1.4 (e7c3feb, 2024-10-09)"
   sodipodi:docname="contact.svg"
   xmlns:inkscape="http://www.inkscape.org/namespaces/inkscape"
   xmlns:sodipodi="http://sodipodi.sourceforge.net/DTD/sodipodi-0.dtd"
   xmlns="http://www.w3.org/2000/svg"
   xmlns:svg="http://www.w3.org/2000/svg">
  <sodipodi:namedview
     id="namedview1"
     pagecolor="#505050"
     bordercolor="#ffffff"
     borderopacity="1"
     inkscape:showpageshadow="0"
     inkscape:pageopacity="0"
     inkscape:pagecheckerboard="1"
     inkscape:deskcolor="#d1d1d1"
     inkscape:document-units="in"
     showguides="true"
     inkscape:zoom="7.7363462"
     inkscape:cx="8.2080091"
     inkscape:cy="20.358448"
     inkscape:window-width="1920"
     inkscape:window-height="1027"
     inkscape:window-x="0"
     inkscape:window-y="0"
     inkscape:window-maximized="1"
     inkscape:current-layer="layer2"
     showgrid="false">
    <inkscape:page
       x="0"
       y="0"
       width="27.349194"
       height="26.738855"
       id="page1"
       margin="0"
       bleed="0" />
  </sodipodi:namedview>
  <defs
     id="defs1" />
  <g
     inkscape:label="bg"
     inkscape:groupmode="layer"
     id="layer1"
     transform="translate(-394.32541,-514.63061)" />
  <g
     inkscape:groupmode="layer"
     id="layer2"
     inkscape:label="cards"
     transform="translate(-394.32541,-514.63061)">
    <path
       style="fill:#50162d;stroke-width:0.0620164"
       d="m 397.8518,541.32356 c -1.4849,-0.25116 -2.7597,-1.32341 -3.3287,-2.79971 l -0.1977,-0.51307 v -10.01565 -10.01566 l 0.1977,-0.51307 c 0.4985,-1.29336 1.4626,-2.21852 2.7791,-2.66685 l 0.4962,-0.16896 H 408 418.2018 l 0.4754,0.16231 c 1.3683,0.46711 2.3372,1.40429 2.8061,2.71415 l 0.1913,0.53444 v 9.95364 9.95364 l -0.1913,0.53443 c -0.4671,1.30466 -1.4433,2.2489 -2.8061,2.71415 l -0.4754,0.16231 -10.0157,0.009 c -5.5087,0.005 -10.159,-0.0153 -10.3343,-0.045 z m 12.0097,-3.76435 c 1.028,-0.27344 2.0797,-0.72359 2.5882,-1.10793 0.6414,-0.48468 0.4606,-1.47683 -0.307,-1.68458 -0.2979,-0.0806 -0.5884,-0.0116 -0.9257,0.21985 -0.438,0.3006 -1.1259,0.62352 -1.7107,0.80317 -0.5109,0.15694 -0.6186,0.16737 -1.7233,0.16704 -1.0748,-2.9e-4 -1.2311,-0.0145 -1.778,-0.16215 -1.2095,-0.32631 -2.2064,-0.8794 -3.1156,-1.72859 -1.1144,-1.04069 -1.843,-2.34439 -2.1867,-3.91296 -0.1609,-0.73413 -0.1609,-2.77552 0,-3.50965 0.3276,-1.4949 0.9856,-2.71895 2.0818,-3.87243 1.5198,-1.59915 3.2709,-2.34227 5.5183,-2.3416 2.5025,8.6e-4 4.2453,0.84335 5.648,2.73073 0.6715,0.90365 1.1806,2.11302 1.4088,3.34663 0.169,0.91377 0.154,2.70512 -0.029,3.4334 -0.1641,0.65416 -0.5645,1.45491 -0.8549,1.70992 -0.353,0.30984 -0.7734,0.36421 -1.0425,0.13482 -0.3159,-0.26915 -0.3148,-0.25614 -0.348,-4.4149 l -0.031,-3.88101 -0.1877,-0.30346 c -0.3279,-0.53019 -0.9669,-0.80372 -1.6001,-0.68492 -0.51,0.0957 -1.0526,0.66683 -1.1311,1.19079 l -0.042,0.27602 -0.2953,-0.27637 c -0.3505,-0.32781 -1.1325,-0.73521 -1.6195,-0.84367 -0.2235,-0.0498 -0.6117,-0.0666 -1.0852,-0.0471 -0.8574,0.0354 -1.4851,0.20926 -2.1231,0.58787 -2.1101,1.25236 -3.1026,4.37423 -2.2295,7.01264 0.6307,1.90543 2.3096,3.28609 4.2288,3.47754 1.3876,0.13841 2.5237,-0.25545 3.475,-1.20465 l 0.4387,-0.43776 0.147,0.30402 c 0.081,0.16721 0.3146,0.48291 0.519,0.70157 0.9325,0.9967 2.3485,1.20862 3.6544,0.54687 0.4445,-0.2252 1.0723,-0.84947 1.416,-1.40807 1.1115,-1.80617 1.3497,-4.94373 0.5589,-7.36092 -0.897,-2.74141 -3.0212,-4.95274 -5.6477,-5.87951 -1.5863,-0.55971 -3.6908,-0.68804 -5.407,-0.32967 -3.2628,0.68136 -6.0317,3.15715 -7.1726,6.41346 -0.386,1.1016 -0.4672,1.65875 -0.4672,3.20553 0,1.20799 0.018,1.47952 0.1368,2.02199 0.41,1.87775 1.1702,3.28449 2.4948,4.61619 0.7496,0.75363 1.2892,1.17041 2.0776,1.60479 1.5139,0.83414 2.787,1.12841 4.7442,1.09657 1.1178,-0.0181 1.2633,-0.034 1.9235,-0.20957 z m -2.7527,-6.38549 c -0.8966,-0.29867 -1.5274,-1.46246 -1.5274,-2.81793 0,-1.00284 0.26,-1.68279 0.8493,-2.22148 0.4172,-0.38123 0.8226,-0.52711 1.4453,-0.52001 0.8385,0.01 1.4648,0.43891 1.8804,1.28889 0.4837,0.98953 0.4393,2.41897 -0.1041,3.34614 -0.2374,0.40504 -0.7382,0.82821 -1.1114,0.93903 -0.4049,0.12025 -1.0469,0.11368 -1.4321,-0.0146 z"
       id="path1-8" />
  </g>
</svg>
