<?xml version="1.0" encoding="UTF-8" standalone="no"?>
<!-- Created with Inkscape (http://www.inkscape.org/) -->

<svg
   width="1000"
   height="1000"
   viewBox="0 0 264.58333 264.58333"
   version="1.1"
   id="svg626"
   xmlns="http://www.w3.org/2000/svg"
   xmlns:svg="http://www.w3.org/2000/svg">
  <defs
     id="defs623" />
  <g
     id="layer1">
    <g
       id="g1221"
       transform="matrix(0.65269274,0,0,0.65269274,1.7531185,-0.00493708)">
      <rect
         style="fill:#fcfc80;stroke:none;stroke-width:2.67452;stroke-linecap:round;stroke-linejoin:round"
         id="rect1486"
         width="399.81268"
         height="385.65988"
         x="0.093650602"
         y="1.0925982e-05" />
      <path
         id="path1147"
         style="fill:#000000;stroke-width:3.5879"
         d="m -2.7167106,4.45912 v 195.54086 195.5409 H 200 402.71671 V 199.99998 4.45912 H 200 Z M 200,23.134349 A 176.86702,176.86702 0 0 1 376.86549,199.99998 176.86702,176.86702 0 0 1 200,376.86554 176.86702,176.86702 0 0 1 23.127477,199.99998 176.86702,176.86702 0 0 1 200,23.134349 Z m -94.92533,71.344716 v 12.929085 c 0,7.50049 -0.0951,56.03301 -0.12199,107.8334 l 0.12199,93.50986 90.43338,0.20344 c 71.02345,0.15715 75.46524,-0.20344 75.46524,-0.20344 l -48.52778,-8.13586 c -88.22237,-12.71521 -72.05082,-3.11269 -83.2086,-31.13488 -11.29881,-28.37595 -17.71826,-63.59961 -12.87308,-92.32553 4.4297,-26.26214 20.2251,-52.20826 26.44681,-63.45409 3.77839,-5.05116 12.26339,-19.221985 12.26339,-19.221985 h -28.0586 z m 65.22698,0 0.0405,97.448165 -0.21025,95.97648 h 27.86224 29.19378 l -8.66142,-11.6607 c -38.481,-51.3256 -38.59101,-119.38903 -0.27375,-169.62667 l 9.69854,-12.137275 h -27.96044 z m 65.02383,0 c 0,0 0.0144,4.135312 0,7.960735 -0.0287,4.44 1.24486,33.6955 0,65.26903 -1.2435,31.57364 -1.07806,71.53394 0.36478,88.8007 l -0.36478,31.39418 h 29.47407 27.6381 l -11.57666,-14.73004 c -36.14819,-46.01679 -34.39697,-118.98572 -0.15464,-161.59594 5.92883,-7.37749 13.46171,-17.098665 13.46171,-17.098665 h -29.20784 z" />
      <rect
         style="fill:#000000;stroke-width:0.755906;stroke-linecap:round;stroke-linejoin:round"
         id="rect1771"
         width="402.62305"
         height="4.4591093"
         x="0.093650602"
         y="1.0925982e-05" />
      <rect
         style="fill:#000000;stroke-width:0.755906;stroke-linecap:round;stroke-linejoin:round"
         id="rect1773"
         width="399.90634"
         height="14.340118"
         x="0.093650602"
         y="385.65988" />
    </g>
  </g>
</svg>
