<?xml version="1.0" encoding="UTF-8" standalone="no"?>
<!-- Created with Inkscape (http://www.inkscape.org/) -->

<svg
   width="0.31719482in"
   height="0.27394107in"
   viewBox="0 0 30.450703 26.298343"
   version="1.1"
   id="svg1"
   inkscape:version="1.4 (e7c3feb, 2024-10-09)"
   sodipodi:docname="home.svg"
   xmlns:inkscape="http://www.inkscape.org/namespaces/inkscape"
   xmlns:sodipodi="http://sodipodi.sourceforge.net/DTD/sodipodi-0.dtd"
   xmlns="http://www.w3.org/2000/svg"
   xmlns:svg="http://www.w3.org/2000/svg">
  <sodipodi:namedview
     id="namedview1"
     pagecolor="#505050"
     bordercolor="#ffffff"
     borderopacity="1"
     inkscape:showpageshadow="0"
     inkscape:pageopacity="0"
     inkscape:pagecheckerboard="1"
     inkscape:deskcolor="#d1d1d1"
     inkscape:document-units="in"
     showguides="true"
     inkscape:zoom="6.0932941"
     inkscape:cx="7.3031105"
     inkscape:cy="22.89402"
     inkscape:window-width="1920"
     inkscape:window-height="1027"
     inkscape:window-x="0"
     inkscape:window-y="0"
     inkscape:window-maximized="1"
     inkscape:current-layer="layer2"
     showgrid="false">
    <inkscape:page
       x="6.0622557e-07"
       y="4.0335695e-07"
       width="30.450705"
       height="26.298342"
       id="page1"
       margin="0"
       bleed="0" />
  </sodipodi:namedview>
  <defs
     id="defs1" />
  <g
     inkscape:label="bg"
     inkscape:groupmode="layer"
     id="layer1"
     transform="translate(-326.4898,-390.34694)" />
  <g
     inkscape:groupmode="layer"
     id="layer2"
     inkscape:label="cards"
     transform="translate(-326.4898,-390.34694)">
    <path
       d="m 341.7152,390.34694 a 1.3841229,1.3841229 0 0 0 -0.9842,0.4109 l -13.9601,12.18138 a 0.69206146,0.69206146 0 0 0 -0.2811,0.55689 0.69206146,0.69206146 0 0 0 0.6921,0.69206 h 3.4603 v 11.07298 c 0,0.76404 0.6201,1.38413 1.3841,1.38413 h 5.5365 c 0.764,0 1.3841,-0.62009 1.3841,-1.38413 v -8.30473 h 5.5365 v 8.30473 c 0,0.76404 0.6201,1.38413 1.3841,1.38413 h 5.5365 c 0.764,0 1.3841,-0.62009 1.3841,-1.38413 v -11.07298 h 3.4603 a 0.69206146,0.69206146 0 0 0 0.6921,-0.69206 0.69206146,0.69206146 0 0 0 -0.2812,-0.55689 l -13.952,-12.17326 a 1.3841229,1.3841229 0 0 0 -0.014,-0.008 1.3841229,1.3841229 0 0 0 -0.9839,-0.41071 z"
       id="path1"
       style="fill:#ff0000;stroke-width:1.38412" />
  </g>
</svg>
