<?xml version="1.0" encoding="UTF-8" standalone="no"?>
<!-- Created with Inkscape (http://www.inkscape.org/) -->

<svg
   width="0.36642918in"
   height="0.2757602in"
   viewBox="0 0 35.177201 26.472979"
   version="1.1"
   id="svg1"
   inkscape:version="1.4 (e7c3feb, 2024-10-09)"
   sodipodi:docname="photographer.svg"
   xmlns:inkscape="http://www.inkscape.org/namespaces/inkscape"
   xmlns:sodipodi="http://sodipodi.sourceforge.net/DTD/sodipodi-0.dtd"
   xmlns="http://www.w3.org/2000/svg"
   xmlns:svg="http://www.w3.org/2000/svg">
  <sodipodi:namedview
     id="namedview1"
     pagecolor="#505050"
     bordercolor="#ffffff"
     borderopacity="1"
     inkscape:showpageshadow="0"
     inkscape:pageopacity="0"
     inkscape:pagecheckerboard="1"
     inkscape:deskcolor="#d1d1d1"
     inkscape:document-units="in"
     showguides="true"
     inkscape:zoom="5.5873611"
     inkscape:cx="6.1746501"
     inkscape:cy="14.228542"
     inkscape:window-width="1920"
     inkscape:window-height="1027"
     inkscape:window-x="0"
     inkscape:window-y="0"
     inkscape:window-maximized="1"
     inkscape:current-layer="layer2"
     showgrid="false">
    <inkscape:page
       x="0"
       y="0"
       width="35.1772"
       height="26.472979"
       id="page1"
       margin="0"
       bleed="0" />
  </sodipodi:namedview>
  <defs
     id="defs1" />
  <g
     inkscape:label="bg"
     inkscape:groupmode="layer"
     id="layer1"
     transform="translate(-390.41141,-514.76354)" />
  <g
     inkscape:groupmode="layer"
     id="layer2"
     inkscape:label="cards"
     transform="translate(-390.41141,-514.76354)">
    <path
       style="fill:#2c5aa0;stroke-width:0.0724164"
       d="m 391.99632,541.15862 c -0.4261,-0.11553 -0.936,-0.47102 -1.1794,-0.82224 -0.4405,-0.63556 -0.4173,-0.007 -0.3963,-10.74052 l 0.019,-9.81126 0.1633,-0.30574 c 0.2436,-0.45593 0.5422,-0.76348 0.9721,-1.00132 0.3685,-0.2038 0.4341,-0.21466 1.5078,-0.24958 l 1.1224,-0.0365 0.036,-0.64028 c 0.055,-0.97456 0.1549,-1.01884 2.2028,-0.97742 l 1.2129,0.0246 0.2112,0.23649 c 0.1959,0.21941 0.2112,0.27829 0.2112,0.81469 v 0.5782 h 1.4413 1.4412 l 0.364,-1.12005 c 0.212,-0.65211 0.456,-1.25371 0.5842,-1.44001 0.2796,-0.40652 0.7839,-0.74163 1.2667,-0.84186 0.2532,-0.0526 1.9063,-0.0716 5.0442,-0.0581 l 4.6674,0.0202 0.3622,0.16651 c 0.4508,0.20731 0.8671,0.60261 1.0829,1.02836 0.091,0.17923 0.3071,0.75766 0.4805,1.28538 l 0.3153,0.95952 h 1.7218 1.7221 v -0.57819 c 0,-0.5364 0.016,-0.59528 0.2112,-0.81469 l 0.2111,-0.23648 1.2622,-0.0239 c 1.9141,-0.0362 2.0792,0.0464 2.1385,1.07252 l 0.033,0.5657 0.8059,0.029 c 0.6957,0.025 0.8561,0.0552 1.1744,0.22013 0.4086,0.21186 0.7413,0.55415 0.9887,1.01711 l 0.1634,0.30576 0.019,9.82506 c 0.018,9.78953 0.018,9.82652 -0.1312,10.2267 -0.1814,0.48517 -0.6204,0.9575 -1.1189,1.20425 l -0.3622,0.17919 -15.8228,0.0137 c -12.2691,0.0106 -15.8963,-0.006 -16.1493,-0.0748 z m 17.546,-2.54517 c 2.1063,-0.3673 4.0311,-1.47585 5.3636,-3.08902 1.2277,-1.4861 1.8916,-3.0887 2.0803,-5.02092 0.094,-0.97204 0.01,-1.99149 -0.2557,-3.03481 -0.8518,-3.35822 -3.5883,-5.92582 -7.0444,-6.6096 -0.8604,-0.17023 -2.5106,-0.17023 -3.371,0 -3.4525,0.68307 -6.1935,3.25482 -7.0445,6.6096 -0.9126,3.5977 0.404,7.31032 3.373,9.51179 1.0566,0.78342 2.4621,1.3948 3.7347,1.62461 0.7703,0.13912 2.3897,0.1434 3.164,0.009 z m -2.7113,-2.31762 c -2.1367,-0.40582 -3.9053,-1.75198 -4.8405,-3.68414 -0.4925,-1.01737 -0.6073,-1.56812 -0.606,-2.90606 0,-1.04799 0.019,-1.21945 0.1953,-1.79508 0.6747,-2.21317 2.2523,-3.83901 4.3931,-4.52743 1.4166,-0.45552 3.0158,-0.40601 4.4175,0.13678 0.2986,0.11568 0.6636,0.28388 0.8108,0.3738 l 0.2679,0.16347 -0.5937,0.003 c -0.5321,0.003 -0.6408,0.0284 -1.0476,0.24614 -0.2496,0.13369 -0.5712,0.37279 -0.7143,0.53134 -0.8988,0.99483 -0.8411,2.51526 0.13,3.42355 0.5405,0.50567 0.9093,0.64696 1.69,0.6474 0.566,2.5e-4 0.7054,-0.026 1.0602,-0.20027 0.9542,-0.46858 1.5213,-1.53751 1.3622,-2.56761 -0.029,-0.19011 -0.041,-0.35764 -0.028,-0.37228 0.013,-0.0146 0.1567,0.18088 0.3177,0.43449 1.4314,2.25352 1.3325,5.20416 -0.2484,7.41309 -0.3597,0.50261 -1.1516,1.2805 -1.648,1.61871 -0.5318,0.3624 -1.4805,0.79044 -2.1188,0.95607 -0.7639,0.19822 -2.0534,0.24656 -2.799,0.10495 z m 15.2935,-13.16197 c 0.8809,-0.44416 0.8508,-1.96834 -0.046,-2.34312 -0.1805,-0.0754 -0.6246,-0.10093 -1.7534,-0.10093 -1.4329,0 -1.5279,0.009 -1.8232,0.16474 -0.4165,0.22025 -0.5803,0.53718 -0.5803,1.12311 0,0.49001 0.098,0.74961 0.3821,1.0151 0.278,0.25963 0.4945,0.29115 2.0467,0.29781 1.3674,0.006 1.4697,-0.003 1.7742,-0.15671 z m -11.0842,-5.46755 c 0.5448,-0.27411 0.5269,-1.05537 -0.029,-1.28787 -0.3742,-0.15636 -5.5738,-0.15636 -5.948,0 -0.5564,0.2325 -0.5744,1.01376 -0.029,1.28787 0.2263,0.11392 0.5278,0.12663 3.0034,0.12663 2.4757,0 2.777,-0.0127 3.0036,-0.12663 z"
       id="path1-1" />
  </g>
</svg>
